# xmcd
#
# Track frame offsets:
#  150
#  15429
#  28694
#  45527
#  59366
#  74120
#  86370
#  102549
#  118120
#  130474
#
# Disc length: 1911 seconds
#
# Revision: 0
# Processed by: cddbd v1.5.1PL2 Copyright (c) Steve Scherf et al.
# Submitted via: Collectorz.com_Music_Collector 6.10
#
DISCID=8b07750a
DTITLE=Patty Loveless - Up Against My Heart
DYEAR=1991
DGENRE=Country
TTITLE0=Jealous Bone
TTITLE1=Nobody Loves You Like I Do
TTITLE2=I Already Miss You (Like You're Already Gone)
TTITLE3=Hurt Me Bad (In A Real Good Way)
TTITLE4=If You Don't Want Me
TTITLE5=I Came Straight To You
TTITLE6=If It's The Last Thing I Do
TTITLE7=Can't Stop Myself From Loving You
TTITLE8=Waitin' For The Phone To Ring
TTITLE9=God Will
EXTD=
EXTT0=
EXTT1=
EXTT2=
EXTT3=
EXTT4=
EXTT5=
EXTT6=
EXTT7=
EXTT8=
EXTT9=
PLAYORDER=
